<?xml version="1.0" encoding="UTF-8" standalone="no"?>
<!DOCTYPE svg PUBLIC "-//W3C//DTD SVG 1.1//EN"
 "http://www.w3.org/Graphics/SVG/1.1/DTD/svg11.dtd">
<!-- Generated by graphviz version 2.38.0 (20140413.2041)
 -->
<!-- Title: G Pages: 1 -->
<svg width="919pt" height="904pt"
 viewBox="0.00 0.00 918.80 903.68" xmlns="http://www.w3.org/2000/svg" xmlns:xlink="http://www.w3.org/1999/xlink">
<g id="graph0" class="graph" transform="scale(1 1) rotate(0) translate(470.525 432.095)">
<title>G</title>
<polygon fill="white" stroke="none" points="-470.525,471.585 -470.525,-432.095 448.275,-432.095 448.275,471.585 -470.525,471.585"/>
<!-- 0 -->
<g id="node1" class="node"><title>0</title>
<ellipse fill="none" stroke="black" cx="417.275" cy="19.7447" rx="27" ry="18"/>
<text text-anchor="middle" x="417.275" y="23.4447" font-family="Times New Roman,serif" font-size="14.00">0</text>
</g>
<!-- 1 -->
<g id="node2" class="node"><title>1</title>
<ellipse fill="none" stroke="black" cx="387.755" cy="-136.495" rx="27" ry="18"/>
<text text-anchor="middle" x="387.755" y="-132.795" font-family="Times New Roman,serif" font-size="14.00">1</text>
</g>
<!-- 0&#45;&#45;1 -->
<g id="edge1" class="edge"><title>0&#45;&#45;1</title>
<path fill="none" stroke="black" stroke-width="2" d="M413.888,1.82198C408.224,-28.1559 396.89,-88.1419 391.192,-118.3"/>
</g>
<!-- 16 -->
<g id="node3" class="node"><title>16</title>
<ellipse fill="none" stroke="black" cx="387.755" cy="175.985" rx="27" ry="18"/>
<text text-anchor="middle" x="387.755" y="179.685" font-family="Times New Roman,serif" font-size="14.00">16</text>
</g>
<!-- 0&#45;&#45;16 -->
<g id="edge2" class="edge"><title>0&#45;&#45;16</title>
<path fill="none" stroke="black" stroke-width="2" d="M413.888,37.6674C408.224,67.6453 396.89,127.631 391.192,157.79"/>
</g>
<!-- 2 -->
<g id="node4" class="node"><title>2</title>
<ellipse fill="none" stroke="black" cx="304.235" cy="-271.135" rx="27" ry="18"/>
<text text-anchor="middle" x="304.235" y="-267.435" font-family="Times New Roman,serif" font-size="14.00">2</text>
</g>
<!-- 1&#45;&#45;2 -->
<g id="edge3" class="edge"><title>1&#45;&#45;2</title>
<path fill="none" stroke="black" stroke-width="2" d="M377.346,-153.275C361.341,-179.076 330.858,-228.216 314.775,-254.144"/>
</g>
<!-- 17 -->
<g id="node8" class="node"><title>17</title>
<ellipse fill="none" stroke="black" cx="136.528" cy="-63.4793" rx="27" ry="18"/>
<text text-anchor="middle" x="136.528" y="-59.7793" font-family="Times New Roman,serif" font-size="14.00">17</text>
</g>
<!-- 16&#45;&#45;17 -->
<g id="edge23" class="edge"><title>16&#45;&#45;17</title>
<path fill="none" stroke="black" d="M372.039,161.005C326.922,118.001 197.347,-5.50802 152.238,-48.5054"/>
</g>
<!-- 3 -->
<g id="node5" class="node"><title>3</title>
<ellipse fill="none" stroke="black" cx="177.515" cy="-366.895" rx="27" ry="18"/>
<text text-anchor="middle" x="177.515" y="-363.195" font-family="Times New Roman,serif" font-size="14.00">3</text>
</g>
<!-- 2&#45;&#45;3 -->
<g id="edge4" class="edge"><title>2&#45;&#45;3</title>
<path fill="none" stroke="black" stroke-width="2" d="M286.347,-284.652C262.333,-302.8 219.898,-334.867 195.721,-353.137"/>
</g>
<!-- 4 -->
<g id="node6" class="node"><title>4</title>
<ellipse fill="none" stroke="black" cx="24.8746" cy="-410.095" rx="27" ry="18"/>
<text text-anchor="middle" x="24.8746" y="-406.395" font-family="Times New Roman,serif" font-size="14.00">4</text>
</g>
<!-- 3&#45;&#45;4 -->
<g id="edge5" class="edge"><title>3&#45;&#45;4</title>
<path fill="none" stroke="black" stroke-width="2" d="M152.651,-373.932C124.266,-381.966 78.1078,-395.029 49.7279,-403.061"/>
</g>
<!-- 5 -->
<g id="node7" class="node"><title>5</title>
<ellipse fill="none" stroke="black" cx="-132.805" cy="-395.695" rx="27" ry="18"/>
<text text-anchor="middle" x="-132.805" y="-391.995" font-family="Times New Roman,serif" font-size="14.00">5</text>
</g>
<!-- 4&#45;&#45;5 -->
<g id="edge6" class="edge"><title>4&#45;&#45;5</title>
<path fill="none" stroke="black" stroke-width="2" d="M-2.23157,-407.62C-31.289,-404.966 -77.1326,-400.78 -106.053,-398.138"/>
</g>
<!-- 4&#45;&#45;17 -->
<g id="edge7" class="edge"><title>4&#45;&#45;17</title>
<path fill="none" stroke="black" d="M30.565,-392.43C49.7183,-332.971 111.713,-140.515 130.849,-81.109"/>
</g>
<!-- 6 -->
<g id="node9" class="node"><title>6</title>
<ellipse fill="none" stroke="black" cx="-275.365" cy="-325.135" rx="27" ry="18"/>
<text text-anchor="middle" x="-275.365" y="-321.435" font-family="Times New Roman,serif" font-size="14.00">6</text>
</g>
<!-- 5&#45;&#45;6 -->
<g id="edge8" class="edge"><title>5&#45;&#45;6</title>
<path fill="none" stroke="black" stroke-width="2" d="M-154.768,-384.825C-181.636,-371.527 -226.84,-349.153 -253.612,-335.902"/>
</g>
<!-- 22 -->
<g id="node23" class="node"><title>22</title>
<ellipse fill="none" stroke="black" cx="99.8321" cy="-17.4548" rx="27" ry="18"/>
<text text-anchor="middle" x="99.8321" y="-13.7548" font-family="Times New Roman,serif" font-size="14.00">22</text>
</g>
<!-- 17&#45;&#45;22 -->
<g id="edge24" class="edge"><title>17&#45;&#45;22</title>
<path fill="none" stroke="black" d="M123.694,-47.3822C120.139,-42.9236 116.28,-38.0832 112.721,-33.6207"/>
</g>
<!-- 7 -->
<g id="node10" class="node"><title>7</title>
<ellipse fill="none" stroke="black" cx="-381.925" cy="-207.775" rx="27" ry="18"/>
<text text-anchor="middle" x="-381.925" y="-204.075" font-family="Times New Roman,serif" font-size="14.00">7</text>
</g>
<!-- 6&#45;&#45;7 -->
<g id="edge9" class="edge"><title>6&#45;&#45;7</title>
<path fill="none" stroke="black" stroke-width="2" d="M-289.737,-309.308C-310.188,-286.784 -347.456,-245.738 -367.782,-223.352"/>
</g>
<!-- 24 -->
<g id="node11" class="node"><title>24</title>
<ellipse fill="none" stroke="black" cx="-83.922" cy="-95.6081" rx="27" ry="18"/>
<text text-anchor="middle" x="-83.922" y="-91.9081" font-family="Times New Roman,serif" font-size="14.00">24</text>
</g>
<!-- 6&#45;&#45;24 -->
<g id="edge10" class="edge"><title>6&#45;&#45;24</title>
<path fill="none" stroke="black" d="M-262.207,-309.359C-227.233,-267.428 -132.252,-153.552 -97.1728,-111.495"/>
</g>
<!-- 8 -->
<g id="node12" class="node"><title>8</title>
<ellipse fill="none" stroke="black" cx="-439.525" cy="-59.4553" rx="27" ry="18"/>
<text text-anchor="middle" x="-439.525" y="-55.7553" font-family="Times New Roman,serif" font-size="14.00">8</text>
</g>
<!-- 7&#45;&#45;8 -->
<g id="edge11" class="edge"><title>7&#45;&#45;8</title>
<path fill="none" stroke="black" stroke-width="2" d="M-388.759,-190.179C-399.845,-161.633 -421.621,-105.56 -432.701,-77.0291"/>
</g>
<!-- 27 -->
<g id="node30" class="node"><title>27</title>
<ellipse fill="none" stroke="black" cx="-108.895" cy="-37.1344" rx="27" ry="18"/>
<text text-anchor="middle" x="-108.895" y="-33.4344" font-family="Times New Roman,serif" font-size="14.00">27</text>
</g>
<!-- 24&#45;&#45;27 -->
<g id="edge35" class="edge"><title>24&#45;&#45;27</title>
<path fill="none" stroke="black" d="M-91.4146,-78.0641C-94.5753,-70.6632 -98.2472,-62.0656 -101.407,-54.6661"/>
</g>
<!-- 9 -->
<g id="node13" class="node"><title>9</title>
<ellipse fill="none" stroke="black" cx="-439.525" cy="98.9447" rx="27" ry="18"/>
<text text-anchor="middle" x="-439.525" y="102.645" font-family="Times New Roman,serif" font-size="14.00">9</text>
</g>
<!-- 8&#45;&#45;9 -->
<g id="edge12" class="edge"><title>8&#45;&#45;9</title>
<path fill="none" stroke="black" stroke-width="2" d="M-439.525,-41.2848C-439.525,-10.8925 -439.525,49.9228 -439.525,80.4982"/>
</g>
<!-- 18 -->
<g id="node14" class="node"><title>18</title>
<ellipse fill="none" stroke="black" cx="-169.301" cy="57.5708" rx="27" ry="18"/>
<text text-anchor="middle" x="-169.301" y="61.2708" font-family="Times New Roman,serif" font-size="14.00">18</text>
</g>
<!-- 8&#45;&#45;18 -->
<g id="edge13" class="edge"><title>8&#45;&#45;18</title>
<path fill="none" stroke="black" d="M-416.486,-49.4777C-365.433,-27.3682 -243.28,25.5324 -192.282,47.6184"/>
</g>
<!-- 10 -->
<g id="node15" class="node"><title>10</title>
<ellipse fill="none" stroke="black" cx="-381.925" cy="247.265" rx="27" ry="18"/>
<text text-anchor="middle" x="-381.925" y="250.965" font-family="Times New Roman,serif" font-size="14.00">10</text>
</g>
<!-- 9&#45;&#45;10 -->
<g id="edge14" class="edge"><title>9&#45;&#45;10</title>
<path fill="none" stroke="black" stroke-width="2" d="M-432.692,116.541C-421.606,145.087 -399.83,201.16 -388.75,229.691"/>
</g>
<!-- 19 -->
<g id="node19" class="node"><title>19</title>
<ellipse fill="none" stroke="black" cx="-112.591" cy="139.127" rx="27" ry="18"/>
<text text-anchor="middle" x="-112.591" y="142.827" font-family="Times New Roman,serif" font-size="14.00">19</text>
</g>
<!-- 18&#45;&#45;19 -->
<g id="edge25" class="edge"><title>18&#45;&#45;19</title>
<path fill="none" stroke="black" d="M-157.825,74.0749C-147.986,88.2246 -133.884,108.505 -124.05,122.648"/>
</g>
<!-- 28 -->
<g id="node24" class="node"><title>28</title>
<ellipse fill="none" stroke="black" cx="-116.189" cy="35.9178" rx="27" ry="18"/>
<text text-anchor="middle" x="-116.189" y="39.6178" font-family="Times New Roman,serif" font-size="14.00">28</text>
</g>
<!-- 18&#45;&#45;28 -->
<g id="edge26" class="edge"><title>18&#45;&#45;28</title>
<path fill="none" stroke="black" d="M-146.16,48.1364C-143.923,47.2247 -141.654,46.2996 -139.417,45.3875"/>
</g>
<!-- 11 -->
<g id="node16" class="node"><title>11</title>
<ellipse fill="none" stroke="black" cx="-275.365" cy="364.625" rx="27" ry="18"/>
<text text-anchor="middle" x="-275.365" y="368.325" font-family="Times New Roman,serif" font-size="14.00">11</text>
</g>
<!-- 10&#45;&#45;11 -->
<g id="edge15" class="edge"><title>10&#45;&#45;11</title>
<path fill="none" stroke="black" stroke-width="2" d="M-367.554,263.092C-347.103,285.616 -309.835,326.662 -289.509,349.048"/>
</g>
<!-- 12 -->
<g id="node17" class="node"><title>12</title>
<ellipse fill="none" stroke="black" cx="-132.805" cy="435.185" rx="27" ry="18"/>
<text text-anchor="middle" x="-132.805" y="438.885" font-family="Times New Roman,serif" font-size="14.00">12</text>
</g>
<!-- 11&#45;&#45;12 -->
<g id="edge16" class="edge"><title>11&#45;&#45;12</title>
<path fill="none" stroke="black" stroke-width="2" d="M-253.403,375.495C-226.535,388.793 -181.331,411.167 -154.559,424.418"/>
</g>
<!-- 13 -->
<g id="node18" class="node"><title>13</title>
<ellipse fill="none" stroke="black" cx="24.8746" cy="449.585" rx="27" ry="18"/>
<text text-anchor="middle" x="24.8746" y="453.285" font-family="Times New Roman,serif" font-size="14.00">13</text>
</g>
<!-- 12&#45;&#45;13 -->
<g id="edge17" class="edge"><title>12&#45;&#45;13</title>
<path fill="none" stroke="black" stroke-width="2" d="M-105.699,437.66C-76.6418,440.314 -30.7982,444.5 -1.87786,447.142"/>
</g>
<!-- 12&#45;&#45;19 -->
<g id="edge18" class="edge"><title>12&#45;&#45;19</title>
<path fill="none" stroke="black" d="M-131.571,417.111C-127.963,364.257 -117.456,210.372 -113.835,157.341"/>
</g>
<!-- 14 -->
<g id="node20" class="node"><title>14</title>
<ellipse fill="none" stroke="black" cx="177.515" cy="406.385" rx="27" ry="18"/>
<text text-anchor="middle" x="177.515" y="410.085" font-family="Times New Roman,serif" font-size="14.00">14</text>
</g>
<!-- 13&#45;&#45;14 -->
<g id="edge19" class="edge"><title>13&#45;&#45;14</title>
<path fill="none" stroke="black" stroke-width="2" d="M49.7386,442.548C78.1229,434.514 124.281,421.451 152.661,413.419"/>
</g>
<!-- 25 -->
<g id="node25" class="node"><title>25</title>
<ellipse fill="none" stroke="black" cx="-68.3469" cy="100.813" rx="27" ry="18"/>
<text text-anchor="middle" x="-68.3469" y="104.513" font-family="Times New Roman,serif" font-size="14.00">25</text>
</g>
<!-- 19&#45;&#45;25 -->
<g id="edge27" class="edge"><title>19&#45;&#45;25</title>
<path fill="none" stroke="black" d="M-96.1164,124.861C-92.4802,121.712 -88.6258,118.374 -84.9833,115.22"/>
</g>
<!-- 15 -->
<g id="node21" class="node"><title>15</title>
<ellipse fill="none" stroke="black" cx="304.235" cy="310.625" rx="27" ry="18"/>
<text text-anchor="middle" x="304.235" y="314.325" font-family="Times New Roman,serif" font-size="14.00">15</text>
</g>
<!-- 14&#45;&#45;15 -->
<g id="edge20" class="edge"><title>14&#45;&#45;15</title>
<path fill="none" stroke="black" stroke-width="2" d="M195.402,392.868C219.416,374.72 261.851,342.653 286.028,324.383"/>
</g>
<!-- 20 -->
<g id="node22" class="node"><title>20</title>
<ellipse fill="none" stroke="black" cx="69.4749" cy="124.123" rx="27" ry="18"/>
<text text-anchor="middle" x="69.4749" y="127.823" font-family="Times New Roman,serif" font-size="14.00">20</text>
</g>
<!-- 14&#45;&#45;20 -->
<g id="edge21" class="edge"><title>14&#45;&#45;20</title>
<path fill="none" stroke="black" d="M170.756,388.728C151.354,338.037 95.63,192.455 76.2307,141.773"/>
</g>
<!-- 15&#45;&#45;16 -->
<g id="edge22" class="edge"><title>15&#45;&#45;16</title>
<path fill="none" stroke="black" stroke-width="2" d="M314.644,293.845C330.648,268.044 361.131,218.904 377.214,192.976"/>
</g>
<!-- 21 -->
<g id="node26" class="node"><title>21</title>
<ellipse fill="none" stroke="black" cx="99.5288" cy="54.634" rx="27" ry="18"/>
<text text-anchor="middle" x="99.5288" y="58.334" font-family="Times New Roman,serif" font-size="14.00">21</text>
</g>
<!-- 20&#45;&#45;21 -->
<g id="edge28" class="edge"><title>20&#45;&#45;21</title>
<path fill="none" stroke="black" d="M77.0587,106.588C81.5799,96.1342 87.3037,82.9 91.8428,72.405"/>
</g>
<!-- 26 -->
<g id="node27" class="node"><title>26</title>
<ellipse fill="none" stroke="black" cx="4.8658" cy="104.312" rx="27" ry="18"/>
<text text-anchor="middle" x="4.8658" y="108.012" font-family="Times New Roman,serif" font-size="14.00">26</text>
</g>
<!-- 20&#45;&#45;26 -->
<g id="edge29" class="edge"><title>20&#45;&#45;26</title>
<path fill="none" stroke="black" d="M44.6801,116.52C39.698,114.992 34.4637,113.387 29.4876,111.861"/>
</g>
<!-- 23 -->
<g id="node29" class="node"><title>23</title>
<ellipse fill="none" stroke="black" cx="4.41521" cy="-57.0476" rx="27" ry="18"/>
<text text-anchor="middle" x="4.41521" y="-53.3476" font-family="Times New Roman,serif" font-size="14.00">23</text>
</g>
<!-- 22&#45;&#45;23 -->
<g id="edge32" class="edge"><title>22&#45;&#45;23</title>
<path fill="none" stroke="black" d="M76.7343,-27.0391C61.8427,-33.2183 42.5458,-41.2255 27.631,-47.4143"/>
</g>
<!-- 25&#45;&#45;28 -->
<g id="edge37" class="edge"><title>25&#45;&#45;28</title>
<path fill="none" stroke="black" d="M-80.4194,84.4375C-87.6166,74.6749 -96.7281,62.3155 -103.954,52.5142"/>
</g>
<!-- 25&#45;&#45;26 -->
<g id="edge36" class="edge"><title>25&#45;&#45;26</title>
<path fill="none" stroke="black" d="M-41.0852,102.116C-34.9056,102.411 -28.3453,102.725 -22.1749,103.02"/>
</g>
<!-- 21&#45;&#45;22 -->
<g id="edge30" class="edge"><title>21&#45;&#45;22</title>
<path fill="none" stroke="black" d="M99.6053,36.443C99.6513,25.5149 99.7096,11.6575 99.7556,0.730442"/>
</g>
<!-- 29 -->
<g id="node28" class="node"><title>29</title>
<ellipse fill="none" stroke="black" cx="52.0148" cy="-6.73029" rx="27" ry="18"/>
<text text-anchor="middle" x="52.0148" y="-3.03029" font-family="Times New Roman,serif" font-size="14.00">29</text>
</g>
<!-- 21&#45;&#45;29 -->
<g id="edge31" class="edge"><title>21&#45;&#45;29</title>
<path fill="none" stroke="black" d="M87.0451,38.5113C80.1162,29.5627 71.522,18.4632 64.5801,9.49785"/>
</g>
<!-- 34 -->
<g id="node31" class="node"><title>34</title>
<ellipse fill="none" stroke="black" cx="25.8099" cy="33.9492" rx="27" ry="18"/>
<text text-anchor="middle" x="25.8099" y="37.6492" font-family="Times New Roman,serif" font-size="14.00">34</text>
</g>
<!-- 26&#45;&#45;34 -->
<g id="edge38" class="edge"><title>26&#45;&#45;34</title>
<path fill="none" stroke="black" d="M10.1509,86.5563C13.3016,75.9713 17.2904,62.5707 20.4536,51.9437"/>
</g>
<!-- 30 -->
<g id="node33" class="node"><title>30</title>
<ellipse fill="none" stroke="black" cx="60.9949" cy="-95.6867" rx="27" ry="18"/>
<text text-anchor="middle" x="60.9949" y="-91.9867" font-family="Times New Roman,serif" font-size="14.00">30</text>
</g>
<!-- 29&#45;&#45;30 -->
<g id="edge41" class="edge"><title>29&#45;&#45;30</title>
<path fill="none" stroke="black" d="M53.8321,-24.7319C55.3901,-40.1655 57.6231,-62.286 59.1803,-77.7118"/>
</g>
<!-- 23&#45;&#45;24 -->
<g id="edge33" class="edge"><title>23&#45;&#45;24</title>
<path fill="none" stroke="black" d="M-18.3338,-66.9779C-31.5229,-72.7351 -48.0741,-79.9599 -61.2501,-85.7114"/>
</g>
<!-- 23&#45;&#45;29 -->
<g id="edge34" class="edge"><title>23&#45;&#45;29</title>
<path fill="none" stroke="black" d="M18.9553,-41.6773C24.8608,-35.4347 31.6674,-28.2394 37.5638,-22.0064"/>
</g>
<!-- 27&#45;&#45;28 -->
<g id="edge39" class="edge"><title>27&#45;&#45;28</title>
<path fill="none" stroke="black" d="M-110.698,-19.0766C-111.82,-7.83764 -113.258,6.56702 -114.381,17.8145"/>
</g>
<!-- 32 -->
<g id="node32" class="node"><title>32</title>
<ellipse fill="none" stroke="black" cx="-56.2271" cy="-84.5512" rx="27" ry="18"/>
<text text-anchor="middle" x="-56.2271" y="-80.8512" font-family="Times New Roman,serif" font-size="14.00">32</text>
</g>
<!-- 27&#45;&#45;32 -->
<g id="edge40" class="edge"><title>27&#45;&#45;32</title>
<path fill="none" stroke="black" d="M-92.8064,-51.6187C-86.3932,-57.3925 -79.0195,-64.0311 -72.5802,-69.8284"/>
</g>
<!-- 35 -->
<g id="node35" class="node"><title>35</title>
<ellipse fill="none" stroke="black" cx="90.3521" cy="-44.6699" rx="27" ry="18"/>
<text text-anchor="middle" x="90.3521" y="-40.9699" font-family="Times New Roman,serif" font-size="14.00">35</text>
</g>
<!-- 34&#45;&#45;35 -->
<g id="edge49" class="edge"><title>34&#45;&#45;35</title>
<path fill="none" stroke="black" d="M38.871,18.0394C50.0688,4.39939 66.1183,-15.1506 77.3105,-28.7838"/>
</g>
<!-- 33 -->
<g id="node37" class="node"><title>33</title>
<ellipse fill="none" stroke="black" cx="0.835505" cy="-40.6352" rx="27" ry="18"/>
<text text-anchor="middle" x="0.835505" y="-36.9352" font-family="Times New Roman,serif" font-size="14.00">33</text>
</g>
<!-- 32&#45;&#45;33 -->
<g id="edge46" class="edge"><title>32&#45;&#45;33</title>
<path fill="none" stroke="black" d="M-38.4849,-70.8967C-31.6799,-65.6594 -23.9145,-59.6831 -17.0922,-54.4326"/>
</g>
<!-- 31 -->
<g id="node34" class="node"><title>31</title>
<ellipse fill="none" stroke="black" cx="0.594788" cy="-146.365" rx="27" ry="18"/>
<text text-anchor="middle" x="0.594788" y="-142.665" font-family="Times New Roman,serif" font-size="14.00">31</text>
</g>
<!-- 30&#45;&#45;31 -->
<g id="edge42" class="edge"><title>30&#45;&#45;31</title>
<path fill="none" stroke="black" d="M44.1701,-109.803C35.9323,-116.715 26.0305,-125.023 17.749,-131.972"/>
</g>
<!-- 30&#45;&#45;35 -->
<g id="edge43" class="edge"><title>30&#45;&#45;35</title>
<path fill="none" stroke="black" d="M70.7704,-78.6988C73.9062,-73.2495 77.3793,-67.214 80.5192,-61.7575"/>
</g>
<!-- 31&#45;&#45;32 -->
<g id="edge44" class="edge"><title>31&#45;&#45;32</title>
<path fill="none" stroke="black" d="M-13.7438,-130.766C-22.4233,-121.325 -33.4471,-109.332 -42.09,-99.9302"/>
</g>
<!-- 36 -->
<g id="node36" class="node"><title>36</title>
<ellipse fill="none" stroke="black" cx="72.2314" cy="-127.518" rx="27" ry="18"/>
<text text-anchor="middle" x="72.2314" y="-123.818" font-family="Times New Roman,serif" font-size="14.00">36</text>
</g>
<!-- 31&#45;&#45;36 -->
<g id="edge45" class="edge"><title>31&#45;&#45;36</title>
<path fill="none" stroke="black" d="M26.0529,-139.667C32.8091,-137.889 40.1034,-135.97 46.8553,-134.194"/>
</g>
<!-- 35&#45;&#45;36 -->
<g id="edge50" class="edge"><title>35&#45;&#45;36</title>
<path fill="none" stroke="black" d="M86.4202,-62.6467C83.3807,-76.5431 79.1932,-95.6887 76.1556,-109.576"/>
</g>
<!-- 33&#45;&#45;34 -->
<g id="edge47" class="edge"><title>33&#45;&#45;34</title>
<path fill="none" stroke="black" d="M6.75408,-22.9598C10.7063,-11.1566 15.8859,4.31179 19.8472,16.1421"/>
</g>
<!-- 33&#45;&#45;36 -->
<g id="edge48" class="edge"><title>33&#45;&#45;36</title>
<path fill="none" stroke="black" d="M13.9306,-56.5709C26.8127,-72.2473 46.3659,-96.0419 59.2193,-111.683"/>
</g>
</g>
</svg>
